<?xml version="1.0" encoding="UTF-8" standalone="no"?>
<!-- Created with Inkscape (http://www.inkscape.org/) -->

<svg
   width="8.6529503mm"
   height="15.46255mm"
   viewBox="0 0 8.6529505 15.46255"
   version="1.1"
   id="svg1"
   xml:space="preserve"
   sodipodi:docname="about.svg"
   inkscape:version="1.3 (0e150ed6c4, 2023-07-21)"
   xmlns:inkscape="http://www.inkscape.org/namespaces/inkscape"
   xmlns:sodipodi="http://sodipodi.sourceforge.net/DTD/sodipodi-0.dtd"
   xmlns="http://www.w3.org/2000/svg"
   xmlns:svg="http://www.w3.org/2000/svg"><sodipodi:namedview
     id="namedview1"
     pagecolor="#ffffff"
     bordercolor="#000000"
     borderopacity="0.25"
     inkscape:showpageshadow="2"
     inkscape:pageopacity="0.0"
     inkscape:pagecheckerboard="0"
     inkscape:deskcolor="#d1d1d1"
     inkscape:document-units="mm"
     showgrid="false"
     inkscape:zoom="5.7228395"
     inkscape:cx="7.0769065"
     inkscape:cy="43.073023"
     inkscape:window-width="1920"
     inkscape:window-height="1007"
     inkscape:window-x="0"
     inkscape:window-y="0"
     inkscape:window-maximized="1"
     inkscape:current-layer="layer1"><inkscape:grid
       id="grid1"
       units="px"
       originx="-380.12887"
       originy="-421.84258"
       spacingx="0.26458333"
       spacingy="0.26458334"
       empcolor="#0099e5"
       empopacity="0.30196078"
       color="#0099e5"
       opacity="0.14901961"
       empspacing="5"
       dotted="false"
       gridanglex="30"
       gridanglez="30"
       visible="false" /></sodipodi:namedview><defs
     id="defs1" /><g
     inkscape:label="Layer 1"
     inkscape:groupmode="layer"
     id="layer1"
     transform="translate(-100.57576,-111.61252)"><g
       id="rect6" /><path
       d="m 105.08657,111.61252 q 1.3012,0 2.23372,0.47711 0.95421,0.45541 1.43132,1.23613 0.4771,0.78072 0.4771,1.66987 0,0.84578 -0.30361,1.453 -0.28192,0.58554 -0.69397,0.95421 -0.41204,0.36867 -1.10602,0.86747 -0.91083,0.62891 -1.36625,1.17107 -0.45542,0.52048 -0.45542,1.40963 v 0.9759 h -1.97348 v -1.08433 q 0,-0.93252 0.30361,-1.58312 0.3253,-0.6506 0.75903,-1.04096 0.43373,-0.39036 1.14939,-0.88915 0.82409,-0.54217 1.21445,-0.9759 0.39036,-0.43373 0.39036,-1.1277 0,-0.88915 -0.58554,-1.36626 -0.58554,-0.49879 -1.60481,-0.49879 -1.73492,0 -3.01443,1.56144 l -1.36626,-1.06265 q 1.82168,-2.14697 4.51081,-2.14697 z m -0.71565,12.44811 q 0.65059,0 1.08433,0.43373 0.43373,0.43373 0.43373,1.06264 0,0.62892 -0.43373,1.08433 -0.43374,0.43374 -1.08433,0.43374 -0.62892,0 -1.06265,-0.43374 -0.43373,-0.45541 -0.43373,-1.08433 0,-0.62891 0.43373,-1.06264 0.43373,-0.43373 1.06265,-0.43373 z"
       id="text9"
       style="font-size:21.6866px;font-family:'Fira Sans';-inkscape-font-specification:'Fira Sans, Normal';stroke-width:0.513891;stroke-linecap:round;stroke-linejoin:round"
       aria-label="?" /></g></svg>
