<?xml version="1.0" encoding="UTF-8" standalone="no"?>
<!-- Created with Inkscape (http://www.inkscape.org/) -->

<svg
   width="35.912109mm"
   height="41.666019mm"
   viewBox="0 0 35.91211 41.666019"
   version="1.1"
   id="svg1"
   xml:space="preserve"
   sodipodi:docname="file.svg"
   inkscape:version="1.3 (0e150ed6c4, 2023-07-21)"
   xmlns:inkscape="http://www.inkscape.org/namespaces/inkscape"
   xmlns:sodipodi="http://sodipodi.sourceforge.net/DTD/sodipodi-0.dtd"
   xmlns="http://www.w3.org/2000/svg"
   xmlns:svg="http://www.w3.org/2000/svg"><sodipodi:namedview
     id="namedview1"
     pagecolor="#ffffff"
     bordercolor="#000000"
     borderopacity="0.25"
     inkscape:showpageshadow="2"
     inkscape:pageopacity="0.0"
     inkscape:pagecheckerboard="0"
     inkscape:deskcolor="#d1d1d1"
     inkscape:document-units="mm"
     showgrid="false"
     inkscape:zoom="2.8614197"
     inkscape:cx="85.097617"
     inkscape:cy="63.779528"
     inkscape:window-width="1920"
     inkscape:window-height="1007"
     inkscape:window-x="0"
     inkscape:window-y="0"
     inkscape:window-maximized="1"
     inkscape:current-layer="layer1"><inkscape:grid
       id="grid1"
       units="px"
       originx="-333.49901"
       originy="-383.46701"
       spacingx="0.26458333"
       spacingy="0.26458334"
       empcolor="#0099e5"
       empopacity="0.30196078"
       color="#0099e5"
       opacity="0.14901961"
       empspacing="5"
       dotted="false"
       gridanglex="30"
       gridanglez="30"
       visible="false" /></sodipodi:namedview><defs
     id="defs1" /><g
     inkscape:label="Layer 1"
     inkscape:groupmode="layer"
     id="layer1"
     transform="translate(-88.238281,-101.45898)"><g
       id="rect6"
       style="fill:none;stroke:#000000;stroke-width:5"
       transform="matrix(0.87675177,0,0,0.89377182,13.088263,12.990856)"><path
         style="color:#000000;fill:#000000;stroke:none;stroke-linecap:round;stroke-linejoin:round;-inkscape-stroke:none"
         d="m 90.5,98.958984 c -2.600241,0.0012 -4.760512,2.161496 -4.761719,4.761716 a 2.50025,2.50025 0 0 0 0,0.002 v 37.13867 a 2.50025,2.50025 0 0 0 0,0.002 c 0.0012,2.60022 2.161491,4.76051 4.761719,4.76172 a 2.50025,2.50025 0 0 0 0.002,0 h 31.384767 a 2.50025,2.50025 0 0 0 0.002,0 c 2.60021,-0.001 4.76049,-2.16152 4.76172,-4.76172 a 2.50025,2.50025 0 0 0 0,-0.002 V 117 c -3.8e-4,-1.06395 -0.35776,-2.09986 -1.01367,-2.9375 l -0.002,-0.002 -10.39844,-13.27539 a 2.50025,2.50025 0 0 0 -0.002,-0.002 c -0.90162,-1.149713 -2.28694,-1.823669 -3.74805,-1.824216 H 90.501953 a 2.50025,2.50025 0 0 0 -0.002,0 z m 0.238281,4.999996 h 20.632809 l 10.2793,13.12305 V 140.625 H 90.738281 Z"
         id="path8" /></g></g></svg>
