<?xml version="1.0" encoding="UTF-8" standalone="no"?>
<!-- Created with Inkscape (http://www.inkscape.org/) -->

<svg
   width="58.026398mm"
   height="44.217442mm"
   viewBox="0 0 58.026398 44.217441"
   version="1.1"
   id="svg1"
   xml:space="preserve"
   sodipodi:docname="folder.svg"
   inkscape:version="1.3 (0e150ed6c4, 2023-07-21)"
   xmlns:inkscape="http://www.inkscape.org/namespaces/inkscape"
   xmlns:sodipodi="http://sodipodi.sourceforge.net/DTD/sodipodi-0.dtd"
   xmlns="http://www.w3.org/2000/svg"
   xmlns:svg="http://www.w3.org/2000/svg"><sodipodi:namedview
     id="namedview1"
     pagecolor="#ffffff"
     bordercolor="#000000"
     borderopacity="0.25"
     inkscape:showpageshadow="2"
     inkscape:pageopacity="0.0"
     inkscape:pagecheckerboard="0"
     inkscape:deskcolor="#d1d1d1"
     inkscape:document-units="mm"
     inkscape:zoom="1.6987889"
     inkscape:cx="150.40127"
     inkscape:cy="77.996742"
     inkscape:window-width="1920"
     inkscape:window-height="1007"
     inkscape:window-x="0"
     inkscape:window-y="0"
     inkscape:window-maximized="1"
     inkscape:current-layer="svg1" /><defs
     id="defs1" /><g
     id="layer1"
     transform="matrix(0.92163803,0,0,0.89718001,-67.759015,-87.609019)"
     style="fill:none;stroke:none;stroke-width:6.59828792;stroke-dasharray:none"><g
       id="rect5"
       style="stroke-width:6.59828792;stroke-dasharray:none;stroke:none"><path
         style="color:#000000;fill:#000000;stroke:none;stroke-width:6.59829;stroke-linecap:round;stroke-linejoin:round;stroke-dasharray:none"
         d="m 78.035156,97.683594 c -2.482184,5.04e-4 -4.548325,2.066647 -4.548828,4.548826 v 40.11914 c 5.03e-4,2.48218 2.066644,4.54833 4.548828,4.54883 h 53.929684 c 2.48219,-5e-4 4.54833,-2.06664 4.54883,-4.54883 v -32.99218 c -5e-4,-2.48219 -2.06664,-4.54833 -4.54883,-4.54883 h -13.48242 -10.5332 l -1.98633,-4.4375 v -0.002 c -0.73041,-1.629278 -2.36487,-2.68681 -4.15039,-2.687496 z m 3.145745,6.992796 h 20.692349 l 2.27049,5.07438 c 0.36174,0.8079 1.16423,1.32802 2.04941,1.32826 h 10.91906 11.70688 v 28.82856 H 81.180901 Z"
         id="path6"
         sodipodi:nodetypes="ccccccccccccccccccccccc" /></g></g></svg>
