<?xml version="1.0" encoding="UTF-8" standalone="no"?>
<!-- Created with Inkscape (http://www.inkscape.org/) -->

<svg
   width="69.422943mm"
   height="66.330177mm"
   viewBox="0 0 69.422943 66.330177"
   version="1.1"
   id="svg1"
   xml:space="preserve"
   sodipodi:docname="impressum.svg"
   inkscape:version="1.3 (0e150ed6c4, 2023-07-21)"
   xmlns:inkscape="http://www.inkscape.org/namespaces/inkscape"
   xmlns:sodipodi="http://sodipodi.sourceforge.net/DTD/sodipodi-0.dtd"
   xmlns="http://www.w3.org/2000/svg"
   xmlns:svg="http://www.w3.org/2000/svg"><sodipodi:namedview
     id="namedview1"
     pagecolor="#ffffff"
     bordercolor="#000000"
     borderopacity="0.25"
     inkscape:showpageshadow="2"
     inkscape:pageopacity="0.0"
     inkscape:pagecheckerboard="0"
     inkscape:deskcolor="#d1d1d1"
     inkscape:document-units="mm"
     showgrid="false"
     inkscape:zoom="1.0116647"
     inkscape:cx="279.24273"
     inkscape:cy="38.056089"
     inkscape:window-width="1920"
     inkscape:window-height="1007"
     inkscape:window-x="0"
     inkscape:window-y="0"
     inkscape:window-maximized="1"
     inkscape:current-layer="layer1"><inkscape:grid
       id="grid1"
       units="px"
       originx="-265.65826"
       originy="-336.85687"
       spacingx="0.26458333"
       spacingy="0.26458334"
       empcolor="#0099e5"
       empopacity="0.30196078"
       color="#0099e5"
       opacity="0.14901961"
       empspacing="5"
       dotted="false"
       gridanglex="30"
       gridanglez="30"
       visible="false" /></sodipodi:namedview><defs
     id="defs1" /><g
     inkscape:label="Layer 1"
     inkscape:groupmode="layer"
     id="layer1"
     transform="translate(-70.288747,-89.126713)"><path
       id="path3"
       style="fill:#000000;fill-opacity:1;stroke-width:0.705247"
       d="m -78.208613,-132.95025 a 34.711655,34.711655 0 0 0 7.919413,-22.24774 l -69.4185,-0.2589 a 34.711655,34.711655 0 0 0 6.84661,21.23023 35.876713,35.876713 0 0 1 27.38024,-12.03906 35.876713,35.876713 0 0 1 27.272237,13.31547 z"
       transform="scale(-1)" /><path
       style="fill:#000000;fill-opacity:1;stroke-width:0.579564"
       id="path4"
       sodipodi:type="arc"
       sodipodi:cx="106.0573"
       sodipodi:cy="110.39384"
       sodipodi:rx="21.267124"
       sodipodi:ry="21.267124"
       sodipodi:start="3.1601477"
       sodipodi:end="3.1568397"
       sodipodi:open="true"
       sodipodi:arc-type="arc"
       d="M 84.793833,109.99925 A 21.267124,21.267124 0 0 1 106.4343,89.130055 21.267124,21.267124 0 0 1 127.32138,110.75326 21.267124,21.267124 0 0 1 105.71546,131.65821 21.267124,21.267124 0 0 1 84.792645,110.06959" /></g></svg>
