<?xml version="1.0" encoding="UTF-8" standalone="no"?>
<!-- Created with Inkscape (http://www.inkscape.org/) -->

<svg
   width="83.393875mm"
   height="83.393364mm"
   viewBox="0 0 83.393875 83.393364"
   version="1.1"
   id="svg1"
   xml:space="preserve"
   inkscape:version="1.3 (0e150ed6c4, 2023-07-21)"
   sodipodi:docname="legal.svg"
   xmlns:inkscape="http://www.inkscape.org/namespaces/inkscape"
   xmlns:sodipodi="http://sodipodi.sourceforge.net/DTD/sodipodi-0.dtd"
   xmlns="http://www.w3.org/2000/svg"
   xmlns:svg="http://www.w3.org/2000/svg"><sodipodi:namedview
     id="namedview1"
     pagecolor="#ffffff"
     bordercolor="#000000"
     borderopacity="0.25"
     inkscape:showpageshadow="2"
     inkscape:pageopacity="0.0"
     inkscape:pagecheckerboard="0"
     inkscape:deskcolor="#d1d1d1"
     inkscape:document-units="mm"
     showgrid="false"
     inkscape:zoom="1.4307099"
     inkscape:cx="105.19254"
     inkscape:cy="197.45443"
     inkscape:window-width="1920"
     inkscape:window-height="1007"
     inkscape:window-x="0"
     inkscape:window-y="0"
     inkscape:window-maximized="1"
     inkscape:current-layer="layer1"><inkscape:grid
       id="grid1"
       units="px"
       originx="-239.25568"
       originy="-281.54578"
       spacingx="0.26458333"
       spacingy="0.26458334"
       empcolor="#0099e5"
       empopacity="0.30196078"
       color="#0099e5"
       opacity="0.14901961"
       empspacing="5"
       dotted="false"
       gridanglex="30"
       gridanglez="30"
       visible="false" /></sodipodi:namedview><defs
     id="defs1" /><g
     inkscape:label="Layer 1"
     inkscape:groupmode="layer"
     id="layer1"
     transform="translate(-63.303063,-74.492318)"><path
       id="path2"
       style="fill:#000000;fill-opacity:1;stroke-width:0.529167"
       inkscape:transform-center-x="2.0551531"
       inkscape:transform-center-y="-2.0551531"
       d="M 101.45454,-52.750688 79.304146,-24.309281 43.530708,-28.7585 33.952583,5.9934534 -0.80132412,15.573532 3.6498478,51.34697 -24.793512,73.495407 l 17.8007816,31.347653 -17.8007816,31.34766 28.4433598,22.14844 -4.45117192,35.77344 34.75390712,9.58007 9.578125,34.75196 35.773438,-4.44922 22.150394,28.44141 31.3457,-17.80079 31.34766,17.80079 22.15039,-28.44141 35.77344,4.44922 9.57812,-34.75196 34.75391,-9.58007 -4.45117,-35.77344 28.44336,-22.14844 -17.80079,-31.34766 17.80079,-31.347653 -28.44336,-22.148437 4.45117,-35.773438 -34.75391,-9.5800786 -9.57812,-34.7519534 -35.77344,4.449219 -22.15039,-28.441407 -31.34766,17.800781 z m 31.3457,68.496095 A 89.096931,89.096931 0 0 1 221.8979,104.84306 89.096931,89.096931 0 0 1 132.80024,193.94072 89.096931,89.096931 0 0 1 43.704536,104.84306 89.096931,89.096931 0 0 1 132.80024,15.745407 Z"
       transform="matrix(0.26458333,0,0,0.26458333,69.863013,88.449271)" /></g></svg>
