<?xml version="1.0" encoding="UTF-8" standalone="no"?>
<!-- Created with Inkscape (http://www.inkscape.org/) -->

<svg
   width="31.658531mm"
   height="25.08346mm"
   viewBox="0 0 31.658532 25.08346"
   version="1.1"
   id="svg1"
   xml:space="preserve"
   sodipodi:docname="readme.svg"
   inkscape:version="1.3 (0e150ed6c4, 2023-07-21)"
   xmlns:inkscape="http://www.inkscape.org/namespaces/inkscape"
   xmlns:sodipodi="http://sodipodi.sourceforge.net/DTD/sodipodi-0.dtd"
   xmlns="http://www.w3.org/2000/svg"
   xmlns:svg="http://www.w3.org/2000/svg"><sodipodi:namedview
     id="namedview1"
     pagecolor="#ffffff"
     bordercolor="#000000"
     borderopacity="0.25"
     inkscape:showpageshadow="2"
     inkscape:pageopacity="0.0"
     inkscape:pagecheckerboard="0"
     inkscape:deskcolor="#d1d1d1"
     inkscape:document-units="mm"
     showgrid="false"
     inkscape:zoom="2.0233293"
     inkscape:cx="-47.199435"
     inkscape:cy="-1.7298222"
     inkscape:window-width="1920"
     inkscape:window-height="1007"
     inkscape:window-x="0"
     inkscape:window-y="0"
     inkscape:window-maximized="1"
     inkscape:current-layer="layer1"><inkscape:grid
       id="grid1"
       units="px"
       originx="-338.0459"
       originy="-406.23564"
       spacingx="0.26458333"
       spacingy="0.26458334"
       empcolor="#0099e5"
       empopacity="0.30196078"
       color="#0099e5"
       opacity="0.14901961"
       empspacing="5"
       dotted="false"
       gridanglex="30"
       gridanglez="30"
       visible="false" /></sodipodi:namedview><defs
     id="defs1" /><g
     inkscape:label="Layer 1"
     inkscape:groupmode="layer"
     id="layer1"
     transform="translate(-89.441308,-107.48318)"><g
       id="rect6" /><path
       id="rect8"
       style="color:#000000;fill:#000000;stroke-linecap:round;stroke-linejoin:round;-inkscape-stroke:none"
       d="m 96.295154,107.48807 c -2.374024,-0.0289 -4.927865,0.0801 -4.927865,0.0801 a 2.0002,2.0002 0 0 0 -1.925981,1.99833 v 9.41596 9.41389 a 2.0002,2.0002 0 0 0 2.076359,1.99833 c 0,0 4.69194,-0.15587 6.687447,-0.004 0.852772,0.0649 2.467626,0.43225 3.821986,0.79685 0.67719,0.1823 1.30202,0.36201 1.79731,0.50023 0.18895,0.0527 0.34322,0.0934 0.49764,0.13384 a 1,1 0 0 0 0.9493,0.74517 1,1 0 0 0 0.95033,-0.74931 c 0.14767,-0.0393 0.29427,-0.0783 0.47749,-0.1297 0.49019,-0.13742 1.11514,-0.31598 1.79472,-0.49816 1.35917,-0.36438 2.98837,-0.73395 3.84214,-0.79892 1.9955,-0.15183 6.68745,0.004 6.68745,0.004 a 2.0002,2.0002 0 0 0 2.07636,-1.99833 v -9.41389 -9.41596 a 2.0002,2.0002 0 0 0 -1.92391,-1.99833 c 0,0 -4.54201,-0.19385 -7.14272,0.004 -1.4696,0.11182 -3.15093,0.53645 -4.59765,0.92191 -0.72336,0.19273 -1.37526,0.37775 -1.8495,0.5116 -0.15254,0.0431 -0.24625,0.0696 -0.35553,0.0997 -0.11299,-0.029 -0.21996,-0.0578 -0.38499,-0.10335 -0.47054,-0.12986 -1.10997,-0.31373 -1.81643,-0.50591 -1.41293,-0.38435 -3.046569,-0.81178 -4.521172,-0.92398 -0.650177,-0.0495 -1.421443,-0.0746 -2.212784,-0.0842 z m 18.397846,4.01888 c 0.82733,0.009 1.66297,0.0375 2.40657,0.0558 v 7.4197 7.41815 c -1.48412,-0.0448 -3.22161,-0.13886 -5.06636,0.002 -1.4711,0.11194 -3.13777,0.53676 -4.5744,0.92191 -0.46369,0.12431 -0.81043,0.22433 -1.18752,0.33073 v -14.68748 c 0.12737,-0.0352 0.24567,-0.0679 0.40256,-0.11214 0.48246,-0.13617 1.1079,-0.31406 1.7911,-0.49609 1.36641,-0.36407 3.01581,-0.73333 3.87108,-0.7984 0.71072,-0.0541 1.52963,-0.0632 2.35697,-0.0537 z m -18.844848,5.1e-4 c 0.827336,-0.009 1.646238,-8.3e-4 2.356962,0.0532 0.850272,0.0647 2.430996,0.43168 3.773416,0.79685 0.6712,0.18259 1.29464,0.36162 1.80247,0.50178 0.1816,0.0501 0.33449,0.089 0.49041,0.12867 v 14.67197 c -0.38003,-0.10657 -0.7335,-0.20743 -1.20303,-0.33383 -1.42987,-0.38491 -3.088339,-0.81143 -4.560442,-0.92345 -1.845251,-0.1404 -3.58257,-0.0468 -5.066357,-0.002 v -7.41815 -7.4197 c 0.743599,-0.0183 1.579235,-0.0459 2.406571,-0.0553 z" /></g></svg>
